<?xml version="1.0" encoding="UTF-8"?>
<svg id="_图层_1" data-name="图层 1" xmlns="http://www.w3.org/2000/svg" viewBox="0 0 1225.64 666.45">
  <defs>
    <style>
      .cls-1 {
        fill: #fff;
      }
    </style>
  </defs>
  <path class="cls-1" d="M589.74,0c-82.89,0-150.09,67.2-150.09,150.09,0,6.27.43,12.45,1.18,18.52l102.54-94.3,88.15,79.54,39.54-37.49,66.45,59.96c1.5-8.53,2.33-17.28,2.33-26.24C739.83,67.2,672.63,0,589.74,0Z"/>
  <path class="cls-1" d="M645.43,166.42l71.01,64.08c6.62-10.42,12-21.7,15.92-33.65l-60.77-54.84-26.16,24.41Z"/>
  <path class="cls-1" d="M520.31,283.15c20.77,10.86,44.37,17.04,69.43,17.04,20.57,0,40.16-4.15,58-11.63l-67.72-61.11-59.72,55.71Z"/>
  <path class="cls-1" d="M543.1,194.13l-63.07,58.34c7.15,7.66,15.09,14.56,23.7,20.59l62.37-58.19-23-20.75Z"/>
  <path class="cls-1" d="M593.73,214.65l71.93,64.9c15.16-8.91,28.63-20.37,39.78-33.84l-73.7-66.51-38,35.45Z"/>
  <path class="cls-1" d="M543.19,168.61l36.62,33.49,38-35.45-74.35-67.09-98.38,90.52c4.82,17.47,12.71,33.66,23.07,47.96l75.05-69.43Z"/>
  <path class="cls-1" d="M.52,157.41v-91.43C.52,39.73,14.14,24.17,39.92,24.17s39.39,15.56,39.39,41.82v17.99h-25.29v-19.7c0-11.18-5.34-15.8-13.37-15.8s-13.37,4.62-13.37,15.8v95.07c0,11.18,5.35,15.56,13.37,15.56s13.37-4.38,13.37-15.56v-24.8h25.29v22.86c0,26.26-13.62,41.82-39.39,41.82S.52,183.67.52,157.41Z"/>
  <path class="cls-1" d="M93.15,26.6h26.99l17.75,133.73,17.75-133.73h24.56l-25.77,170.2h-35.5L93.15,26.6Z"/>
  <path class="cls-1" d="M237.57,103.19c8.52,0,13.13-3.89,13.13-16.05v-20.18c0-12.16-4.62-16.05-13.13-16.05h-12.64v52.27h12.64ZM198.18,26.6h39.39c26.75,0,39.88,14.83,39.88,42.07v16.78c0,27.23-13.13,42.06-39.88,42.06h-12.64v69.3h-26.75V26.6Z"/>
  <path class="cls-1" d="M333.36,99.54c9.97,0,16.05-4.38,16.05-17.99v-13.13c0-12.16-4.14-17.51-13.62-17.51h-12.16v48.63h9.72ZM296.88,26.6h39.63c27.72,0,39.64,12.89,39.64,39.15v10.45c0,17.51-5.59,28.69-17.5,33.55v.49c13.37,4.13,17.75,16.78,17.75,35.98v29.91c0,8.27.25,14.35,2.92,20.67h-27.24c-1.46-4.38-2.43-7.05-2.43-20.91v-31.12c0-15.8-4.62-20.91-16.78-20.91h-9.24v72.95h-26.75V26.6Z"/>
  <path class="cls-1" d="M834.01,138.84c6.58,0,10.53-3.38,10.53-12.79V57.61c0-9.4-3.94-12.79-10.53-12.79h-10.53v94.01h10.53ZM802.8,26.02h31.59c20.68,0,30.84,11.47,30.84,32.53v66.56c0,21.06-10.15,32.53-30.84,32.53h-31.59V26.02Z"/>
  <path class="cls-1" d="M878.01,26.02h56.41v18.8h-35.72v34.78h28.39v18.8h-28.39v40.43h35.72v18.8h-56.41V26.02Z"/>
  <path class="cls-1" d="M944.38,26.02h25.57l20.87,78.79V26.02h18.43v131.62h-20.87l-25.57-96.08v96.08h-18.43V26.02Z"/>
  <path class="cls-1" d="M1018.08,26.02h20.87l13.73,103.42,13.73-103.42h18.99l-19.93,131.62h-27.45l-19.93-131.62Z"/>
  <path class="cls-1" d="M1094.23,26.02h56.41v18.8h-35.72v34.78h28.39v18.8h-28.39v40.43h35.72v18.8h-56.41V26.02Z"/>
  <path class="cls-1" d="M1188.81,82.43c7.71,0,12.41-3.38,12.41-13.91v-10.15c0-9.4-3.2-13.54-10.53-13.54h-9.4v37.6h7.52ZM1160.6,26.02h30.65c21.44,0,30.65,9.97,30.65,30.27v8.08c0,13.54-4.33,22.19-13.54,25.95v.38c10.34,3.2,13.72,12.97,13.72,27.83v23.13c0,6.39.19,11.09,2.26,15.98h-21.06c-1.12-3.38-1.88-5.45-1.88-16.17v-24.07c0-12.23-3.57-16.17-12.97-16.17h-7.14v56.41h-20.68V26.02Z"/>
  <path class="cls-1" d="M0,275.03v-8.24c.99.25,1.97.33,2.96.33,3.62,0,5.35-1.73,5.35-5.52v-44.23h9.06v43.99c0,9.47-4.28,14-13.18,14-1.65,0-2.89-.08-4.2-.33Z"/>
  <path class="cls-1" d="M24.95,261.36v-43.99h9.06v44.64c0,4.12,1.73,5.6,4.61,5.6s4.61-1.48,4.61-5.6v-44.64h8.73v43.99c0,9.23-4.61,14.5-13.51,14.5s-13.51-5.27-13.51-14.5Z"/>
  <path class="cls-1" d="M59.86,217.38h11.2l9.14,34.51v-34.51h8.07v57.66h-9.14l-11.2-42.09v42.09h-8.07v-57.66Z"/>
  <path class="cls-1" d="M96.51,217.38h24.71v8.23h-15.65v15.24h12.44v8.24h-12.44v17.71h15.65v8.24h-24.71v-57.66Z"/>
  <path class="cls-1" d="M140.48,261.52v-4.69h8.57v5.11c0,4.12,1.82,5.68,4.7,5.68s4.69-1.4,4.69-6.5v-4.7c0-5.36-1.81-7.33-5.93-7.33h-3.04v-8.24h3.29c3.38,0,5.43-1.48,5.43-6.09v-4.2c0-4.12-1.89-5.77-4.53-5.77s-4.36,1.56-4.36,5.35v3.79h-8.57v-3.05c0-9.22,4.61-14.33,13.26-14.33s13.26,5.02,13.26,14.25v2.06c0,6.18-1.97,9.97-6.43,11.62v.16c4.86,1.81,6.67,6.01,6.67,11.86v5.11c0,9.23-4.61,14.25-13.51,14.25s-13.51-5.11-13.51-14.34Z"/>
  <rect class="cls-1" x="173.17" y="246.62" width="18.12" height="7.42"/>
  <path class="cls-1" d="M210.81,225.61h-18.29v-8.23h27.18v7.91l-14.17,49.75h-9.47l14.75-49.42Z"/>
  <path class="cls-1" d="M221.75,275.03h-3.13v-9.06h9.06v8.16l-5.19,10.79h-4.2l3.46-9.89Z"/>
  <path class="cls-1" d="M249.5,268.77c0-8.57,2.31-13.75,9.06-20.84,6.92-7.33,8.9-11.2,8.9-16.56s-1.82-6.59-4.7-6.59-4.69,1.56-4.69,5.68v6.18h-8.57v-5.6c0-9.22,4.61-14.5,13.51-14.5s13.51,5.27,13.51,14.5c0,6.84-2.8,12.77-11.21,21.66-5.43,5.77-6.84,8.82-6.84,12.85v1.23h17.22v8.24h-26.2v-6.26Z"/>
  <path class="cls-1" d="M300.73,261.94v-31.46c0-4.12-1.81-5.68-4.69-5.68s-4.7,1.56-4.7,5.68v31.46c0,4.12,1.81,5.68,4.7,5.68s4.69-1.57,4.69-5.68ZM282.28,261.36v-30.32c0-9.22,4.86-14.5,13.76-14.5s13.75,5.27,13.75,14.5v30.32c0,9.23-4.86,14.5-13.75,14.5s-13.76-5.27-13.76-14.5Z"/>
  <path class="cls-1" d="M315.96,268.77c0-8.57,2.31-13.75,9.06-20.84,6.92-7.33,8.89-11.2,8.89-16.56s-1.81-6.59-4.7-6.59-4.69,1.56-4.69,5.68v6.18h-8.57v-5.6c0-9.22,4.61-14.5,13.51-14.5s13.51,5.27,13.51,14.5c0,6.84-2.8,12.77-11.2,21.66-5.44,5.77-6.84,8.82-6.84,12.85v1.23h17.21v8.24h-26.19v-6.26Z"/>
  <path class="cls-1" d="M367.18,262.02v-10.21c0-3.87-1.57-5.68-4.7-5.68s-4.7,1.81-4.7,5.68v10.21c0,3.79,1.57,5.6,4.7,5.6s4.7-1.81,4.7-5.6ZM348.73,261.36v-29.82c0-9.72,4.45-14.99,13.84-14.99,8.89,0,13.51,5.27,13.51,14.5v1.07h-8.57v-1.65c0-4.12-1.81-5.68-4.7-5.68-3.21,0-5.03,1.56-5.03,7.08v11.04c1.81-3.38,4.62-5.03,8.4-5.03,6.67,0,10.05,4.7,10.05,13.18v10.3c0,9.23-4.86,14.5-13.76,14.5s-13.76-5.27-13.76-14.5Z"/>
  <path class="cls-1" d="M802.85,252.67v-51.65c0-14.84,7.69-23.63,22.26-23.63s22.26,8.79,22.26,23.63v10.16h-14.29v-11.13c0-6.32-3.02-8.93-7.55-8.93s-7.55,2.61-7.55,8.93v53.72c0,6.32,3.02,8.79,7.55,8.79s7.55-2.47,7.55-8.79v-14.01h14.29v12.92c0,14.84-7.69,23.63-22.26,23.63s-22.26-8.79-22.26-23.63Z"/>
  <path class="cls-1" d="M885.97,253.08v-52.48c0-6.87-3.02-9.48-7.83-9.48s-7.83,2.61-7.83,9.48v52.48c0,6.87,3.02,9.48,7.83,9.48s7.83-2.61,7.83-9.48ZM855.2,252.12v-50.56c0-15.39,8.1-24.18,22.94-24.18s22.95,8.79,22.95,24.18v50.56c0,15.39-8.11,24.18-22.95,24.18s-22.94-8.79-22.94-24.18Z"/>
  <path class="cls-1" d="M910.98,178.76h15.11v82.43h24.87v13.74h-39.98v-96.17Z"/>
  <path class="cls-1" d="M987.1,253.08v-52.48c0-6.87-3.02-9.48-7.83-9.48s-7.83,2.61-7.83,9.48v52.48c0,6.87,3.02,9.48,7.83,9.48s7.83-2.61,7.83-9.48ZM956.33,252.12v-50.56c0-15.39,8.11-24.18,22.94-24.18s22.95,8.79,22.95,24.18v50.56c0,15.39-8.11,24.18-22.95,24.18s-22.94-8.79-22.94-24.18Z"/>
  <path class="cls-1" d="M1032.72,219.97c5.63,0,9.07-2.48,9.07-10.17v-7.42c0-6.87-2.34-9.9-7.69-9.9h-6.87v27.48h5.49ZM1012.11,178.76h22.39c15.66,0,22.4,7.28,22.4,22.12v5.9c0,9.89-3.16,16.21-9.89,18.96v.28c7.55,2.33,10.03,9.48,10.03,20.33v16.9c0,4.67.14,8.11,1.65,11.68h-15.39c-.82-2.47-1.37-3.98-1.37-11.82v-17.58c0-8.93-2.61-11.81-9.48-11.81h-5.22v41.21h-15.11v-96.17Z"/>
  <path class="cls-1" d="M1095.51,243.05l-6.87-48.5-6.73,48.5h13.6ZM1097.43,256.1h-17.45l-2.61,18.82h-14.01l15.66-96.17h20.47l15.66,96.17h-15.11l-2.61-18.82Z"/>
  <path class="cls-1" d="M1144.84,261.19c4.81,0,7.69-2.47,7.69-9.34v-50.01c0-6.87-2.89-9.34-7.69-9.34h-7.69v68.69h7.69ZM1122.03,178.76h23.08c15.11,0,22.53,8.38,22.53,23.77v48.63c0,15.39-7.42,23.77-22.53,23.77h-23.08v-96.17Z"/>
  <path class="cls-1" d="M1207.21,253.08v-52.48c0-6.87-3.02-9.48-7.83-9.48s-7.83,2.61-7.83,9.48v52.48c0,6.87,3.02,9.48,7.83,9.48s7.83-2.61,7.83-9.48ZM1176.44,252.12v-50.56c0-15.39,8.11-24.18,22.94-24.18s22.95,8.79,22.95,24.18v50.56c0,15.39-8.11,24.18-22.95,24.18s-22.94-8.79-22.94-24.18Z"/>
  <path class="cls-1" d="M2.85,413.91h49.08l38.06,149.03h.71v-149.03h34.86v248.98h-40.19l-46.95-181.75h-.71v181.75H2.85v-248.98Z"/>
  <path class="cls-1" d="M185.31,449.48h-40.9v-35.57h120.93v35.57h-40.9v213.41h-39.12v-213.41Z"/>
  <path class="cls-1" d="M284.18,413.91h39.12v248.98h-39.12v-248.98Z"/>
  <path class="cls-1" d="M352.47,413.91h57.98c40.55,0,57.98,18.85,57.98,57.26v15.29c0,25.61-8.18,41.97-25.61,49.08v.71c19.56,6.05,25.96,24.54,25.96,52.64v43.75c0,12.09.36,20.99,4.27,30.23h-39.84c-2.13-6.4-3.56-10.32-3.56-30.59v-45.53c0-23.12-6.76-30.59-24.54-30.59h-13.52v106.71h-39.12v-248.98ZM405.82,520.62c14.58,0,23.47-6.4,23.47-26.32v-19.21c0-17.78-6.05-25.61-19.92-25.61h-17.78v71.14h14.23Z"/>
  <path class="cls-1" d="M495.81,413.91h106.7v35.57h-67.58v65.8h53.71v35.57h-53.71v76.47h67.58v35.57h-106.7v-248.98Z"/>
  <path class="cls-1" d="M681.1,635.86c0-35.57,9.96-57.26,39.12-87.85,29.88-31.66,38.41-50.51,38.41-73.63s-7.83-28.46-20.27-28.46-20.27,6.76-20.27,24.54v26.68h-36.99v-24.19c0-39.84,19.92-62.6,58.33-62.6s58.33,22.76,58.33,62.6c0,29.52-12.09,55.84-48.37,94.26-23.48,24.9-29.52,37.35-29.52,54.78v5.33h74.34v35.57h-113.11v-27.03Z"/>
  <path class="cls-1" d="M821.24,603.85v-130.89c0-39.84,20.99-62.6,59.4-62.6s59.4,22.76,59.4,62.6v130.89c0,39.84-20.99,62.6-59.4,62.6s-59.4-22.76-59.4-62.6ZM900.91,606.34v-135.87c0-17.78-7.83-24.54-20.27-24.54s-20.27,6.76-20.27,24.54v135.87c0,17.78,7.83,24.54,20.27,24.54s20.27-6.76,20.27-24.54Z"/>
  <path class="cls-1" d="M965.64,635.86c0-35.57,9.96-57.26,39.12-87.85,29.88-31.66,38.41-50.51,38.41-73.63s-7.83-28.46-20.27-28.46-20.27,6.76-20.27,24.54v26.68h-36.99v-24.19c0-39.84,19.92-62.6,58.33-62.6s58.33,22.76,58.33,62.6c0,29.52-12.09,55.84-48.37,94.26-23.48,24.9-29.52,37.35-29.52,54.78v5.33h74.34v35.57h-113.11v-27.03Z"/>
  <path class="cls-1" d="M1106.84,603.85v-128.76c0-41.97,19.21-64.73,59.75-64.73,38.41,0,58.33,22.76,58.33,62.6v4.62h-36.99v-7.11c0-17.78-7.83-24.54-20.27-24.54-13.87,0-21.7,6.76-21.7,30.59v47.66h.71c6.76-14.23,18.14-21.7,35.57-21.7,28.81,0,43.39,20.27,43.39,56.91v44.46c0,39.84-20.99,62.6-59.4,62.6s-59.4-22.76-59.4-62.6ZM1186.51,606.69v-44.1c0-16.72-6.76-24.54-20.27-24.54s-20.27,7.83-20.27,24.54v44.1c0,16.36,6.76,24.19,20.27,24.19s20.27-7.83,20.27-24.19Z"/>
</svg>