<?xml version="1.0" encoding="utf-8"?>
<!-- Generator: Adobe Illustrator 27.2.0, SVG Export Plug-In . SVG Version: 6.00 Build 0)  -->
<svg version="1.1" id="レイヤー_1" xmlns="http://www.w3.org/2000/svg" xmlns:xlink="http://www.w3.org/1999/xlink" x="0px"
	 y="0px" viewBox="0 0 1500 1638" style="enable-background:new 0 0 1500 1638;" xml:space="preserve">
<style type="text/css">
	.st0{fill:#0B8BEE;}
	.st1{fill:#FFCD00;}
</style>
<g>
	<g>
		<path class="st0" d="M589.6,1117.7c23.1,0,30.8,9.5,48.9,53.2h9.4l-4.6-63.4H391.5v9.2c25.3,2.5,29,5.1,29,22.1v105.2
			c0,45.1-23.2,63.8-60.4,63.8c-33.3,0-51.3-23-51.3-61.6v-107.6c0-17.2,3.7-19,25.9-21.8v-9.2h-87.6v9.2c22,2.8,25.9,4.6,25.9,21.8
			v110.1c0,52.7,32.1,77.3,83.3,77.3c43.7,0,78.5-24.5,78.9-76.3v-110.7c0-17.2,4.5-19.4,24.7-22l-3.9,54.1h9.6
			c17.6-42.8,25.1-53.2,48.7-53.2h19.8v175.1c0,17.2-7.9,18.1-29,20.8v9.2h93.4v-9.2c-20.8-2.8-28.7-3.7-28.7-20.8v-175.1H589.6z"/>
		<path class="st0" d="M846.6,1299.4v-216.5h-5.3l-48.8,15.2v4.7l19.5,10.5v186.1c0,11.5-4.9,13.6-20.4,14.6v9H867v-9
			C851.6,1313,846.6,1310.9,846.6,1299.4z"/>
		<path class="st0" d="M1110.9,1160.4h-51.3v9c14.5,1.7,21.1,2.9,21.1,10c0,2.5-0.6,5-1.9,8.7l-36.8,98.7l-39.5-98.5
			c-1.2-3.7-1.9-6.2-1.9-8.7c0-7.1,5.6-8.4,21.3-10.2v-9H887.1v9c14.5,1.6,20.4,2.2,20.4,8.1c0,4-4,7.3-9,11.7l-48.9,44.8l70.2,89
			h37.7v-6.5l-76-94.3l44.5-40.9c6.7-6.1,12-8.9,22.4-11.3c9.5,2.6,11.3,4.9,14,11l63.6,146.3l-5.6,14.9
			c-7.1,19.2-17.8,24.6-34,24.6c-8.6,0-13.3-1.2-19.1-2.8v12.1c2.8,9.3,13,14.9,22.9,14.9c19.5,0,29.3-13.1,38.6-36.6l66.7-173.1
			c2.5-6.2,4.4-9,15.5-11.8V1160.4z"/>
		<path class="st0" d="M1177.8,1157.3c-43.2,0-76.6,35.1-76.6,88.1c0,48.4,30,80.7,75.1,80.7c43.2,0,76.6-35.1,76.6-88.4
			C1252.9,1189.9,1222.9,1157.3,1177.8,1157.3z M1177.8,1315.8c-27.5,0-39.8-36.3-39.8-79.4c0-41.3,13-68.9,38.3-68.9
			c27.8,0,40.2,36,40.2,79.4C1216.4,1288.2,1203.1,1315.8,1177.8,1315.8z"/>
		<path class="st0" d="M714.7,1157.3c-43.2,0-76.6,35.1-76.6,88.1c0,48.4,30,80.7,75.1,80.7c43.2,0,76.6-35.1,76.6-88.4
			C789.7,1189.9,759.8,1157.3,714.7,1157.3z M711.7,1315.8c-27.5,0-36.8-36.3-36.8-79.4c0-41.3,13-68.9,38.3-68.9
			c27.8,0,40.2,36,40.2,79.4C753.3,1288.2,737,1315.8,711.7,1315.8z"/>
	</g>
	<g>
		<path class="st0" d="M594.3,913c3.3,1.8,6.5,3.6,9.9,5.3c35.9,18.5,76.4,25.9,116.5,21.2c4.2-0.5,8.4,1.5,10.7,5.1
			c2.3,3.6,2.3,8.2,0,11.8c-4.8,7.5-9.6,15.1-14.4,22.6c-0.8,1.2-2.2,1.9-3.6,1.7c-48.6-6.3-95.5-22.2-137.9-46.8
			c-40.8-23.7-72.1-60.8-88.4-105.1c-16.3-44.1-10.8-93.4,14.9-132.8s68.5-64.3,115.5-67.2c44.9-2.7,89.6-3.1,134.5-1.2
			c120.4,5.2,241-4.4,359-28.7c9.1-1.9,17.7,5.1,17.7,14.4c0.5,86.7-29.6,170.8-85,237.5c-4.6,5.6-12.7,7-18.9,3.2
			c-31-18.5-59.7-39.3-86.9-63.1c-0.9-0.8-2.1,0.4-1.3,1.3c23.9,27.1,44.8,55.7,63.4,86.6c3.7,6.2,2.4,14.2-3.2,18.9
			c-66.4,55.6-150.2,86-236.8,85.9c-10.4,0-17.5-10.5-13.7-20.2c23.2-58.9,28.4-123.3,14.8-185.2c-5.1-23.1-13.8-45.3-26-65.7
			c-17.8-29.9-47-51.1-80.9-58.7c-33.9-7.6-69.4-0.9-98.2,18.6c-28.8,19.4-48.3,49.9-54,84.2c-5.6,34.3,3.1,69.4,24.1,97
			C544.4,878,567.7,898.2,594.3,913z"/>
		<path class="st1" d="M397.4,663.5c-1.3,0.8-2,2.2-1.8,3.7c11.5,80.9,49.6,155.8,108.3,212.7c23.2,22.5,51.4,39.1,82.4,48.5
			c32,9.7,66.4,7.3,96.8-6.7c30.3-14,54.5-38.7,67.9-69.3c15.9-36.4,31.8-72.8,47.7-109.2c53.8-123.3,162.3-214.2,293.1-245.6
			c8.8-2.1,13.6-11.5,10.2-19.9c-21.1-52.4-54-99.2-96.2-136.9c-5.2-4.7-13-5-18.6-0.9c-41.9,31-78.4,68.6-108.1,111.4
			c-0.8,1.1-2.4,0.2-1.9-1.1c19.6-46.5,43.8-91,72.1-132.8c4.8-7.1,2.6-16.8-4.8-21c-60.6-34.9-129.8-51.9-199.6-49
			c-7.8,0.3-14,6.7-14.1,14.5c-1.2,78.9,2.7,157,11.9,235.4c0.1,1.2-1.6,1.4-1.8,0.3c-15.6-77.3-36-152.8-61.7-227.4
			c-2.5-7.4-10.4-11.5-17.9-9.4c-67.5,18.9-128.2,56.7-175,108.9c-5.7,6.4-4.8,16.3,2,21.5c43.7,33.5,84.1,71.2,120.7,112.4
			c0.9,1-0.4,2.4-1.5,1.6c-45.5-33.1-95-60.3-147.4-80.9c-6.8-2.7-14.5,0-18.1,6.3c-27.2,46.9-43.7,99.3-48.4,153.3
			c-0.8,9.8,8,17.7,17.7,15.7c72.2-15,147.3-5.8,213.7,26.3c62.3,30,104.9,89.7,113.2,158.4c5,41.3-13.1,82-47.2,105.9
			c-34,23.9-78.5,27.2-115.6,8.5c-12.7-6.4-24.7-13.7-36.2-22.1c-68.2-49.8-106.5-130.6-101.8-214.9c0.5-8.3-8.1-14.2-15.7-10.7
			C413.2,654.7,405.2,658.9,397.4,663.5z"/>
	</g>
</g>
</svg>
